<?xml version="1.0" standalone="no"?>
<!DOCTYPE svg PUBLIC "-//W3C//DTD SVG 20010904//EN"
 "http://www.w3.org/TR/2001/REC-SVG-20010904/DTD/svg10.dtd">
<svg version="1.0" xmlns="http://www.w3.org/2000/svg"
 width="1600.000000pt" height="1600.000000pt" viewBox="0 0 1600.000000 1600.000000"
 preserveAspectRatio="xMidYMid meet">
<metadata>
Created by potrace 1.14, written by Peter Selinger 2001-2017
</metadata>
<g transform="translate(0.000000,1600.000000) scale(0.100000,-0.100000)"
fill="#000000" stroke="none">
<path d="M8910 13250 c-716 -75 -1339 -297 -1910 -680 -594 -398 -1117 -992
-1435 -1630 -21 -41 -39 -77 -40 -78 -2 -2 -36 18 -77 45 -396 265 -847 400
-1263 379 -827 -42 -1536 -509 -1900 -1251 -111 -226 -181 -463 -214 -724
l-17 -135 -124 -51 c-388 -158 -734 -389 -1036 -690 -487 -486 -774 -1067
-871 -1765 -24 -175 -24 -586 0 -760 52 -372 136 -648 297 -975 100 -203 183
-340 305 -500 536 -708 1335 -1149 2220 -1225 167 -14 10386 -14 10545 0 551
50 1054 246 1502 586 129 98 401 368 498 494 420 546 630 1185 607 1850 -7
191 -32 382 -72 548 -191 800 -737 1481 -1485 1853 -290 144 -629 250 -912
284 l-58 7 6 92 c3 50 7 99 9 109 7 38 -16 413 -35 564 -58 448 -184 873 -381
1282 -255 530 -637 1022 -1089 1402 -620 521 -1365 845 -2200 955 -144 19
-729 28 -870 14z m835 -654 c945 -136 1741 -587 2324 -1316 535 -668 813
-1525 770 -2372 -7 -137 -45 -505 -64 -614 l-5 -31 292 -6 c320 -6 427 -18
627 -68 379 -94 704 -273 989 -544 297 -282 514 -658 617 -1064 106 -425 77
-916 -80 -1322 -115 -298 -271 -537 -504 -770 -346 -346 -750 -549 -1241 -626
-110 -17 -361 -18 -5360 -18 -4995 0 -5250 1 -5360 18 -722 113 -1322 495
-1713 1092 -469 717 -526 1638 -148 2410 125 255 255 439 455 643 246 252 543
448 875 577 52 20 177 60 279 88 l185 52 -6 195 c-9 278 10 431 79 640 157
471 533 847 1004 1004 467 155 975 92 1377 -170 129 -83 166 -116 404 -352
119 -118 219 -210 222 -206 3 5 55 144 117 309 115 309 214 529 315 701 495
844 1283 1437 2220 1673 134 33 302 64 445 80 52 6 109 13 125 15 79 11 656
-3 760 -18z"/>
<path d="M7709 10211 l-29 -29 0 -1862 0 -1862 29 -29 29 -29 426 0 425 0 28
24 28 24 0 1872 0 1872 -28 24 -28 24 -425 0 -426 0 -29 -29z"/>
<path d="M7709 5741 l-24 -19 0 -436 0 -435 23 -23 23 -23 425 -3 425 -3 29
30 30 29 0 427 0 426 -25 24 -24 25 -429 0 c-408 0 -431 -1 -453 -19z"/>
</g>
</svg>
