<?xml version="1.0" standalone="no"?>
<!DOCTYPE svg PUBLIC "-//W3C//DTD SVG 20010904//EN"
 "http://www.w3.org/TR/2001/REC-SVG-20010904/DTD/svg10.dtd">
<svg version="1.0" xmlns="http://www.w3.org/2000/svg"
 width="1600.000000pt" height="1600.000000pt" viewBox="0 0 1600.000000 1600.000000"
 preserveAspectRatio="xMidYMid meet">
<metadata>
Created by potrace 1.14, written by Peter Selinger 2001-2017
</metadata>
<g transform="translate(0.000000,1600.000000) scale(0.100000,-0.100000)"
fill="#000000" stroke="none">
<path d="M8910 13250 c-716 -75 -1339 -297 -1910 -680 -594 -398 -1117 -992
-1435 -1630 -21 -41 -39 -77 -40 -78 -2 -2 -36 18 -77 45 -396 265 -847 400
-1263 379 -827 -42 -1536 -509 -1900 -1251 -111 -226 -181 -463 -214 -724
l-17 -135 -124 -51 c-388 -158 -734 -389 -1035 -690 -455 -454 -744 -1008
-850 -1630 -91 -536 -40 -1074 151 -1595 49 -131 199 -433 279 -560 521 -825
1396 -1356 2370 -1440 167 -14 10386 -14 10545 0 551 50 1054 246 1502 586
129 98 401 368 498 494 420 546 630 1185 607 1850 -7 191 -32 382 -72 548
-191 800 -736 1480 -1485 1853 -291 145 -628 250 -912 284 l-58 7 6 92 c3 50
7 99 9 109 7 38 -16 413 -35 564 -58 448 -184 873 -381 1282 -255 530 -637
1022 -1089 1402 -620 521 -1365 845 -2200 955 -144 19 -729 28 -870 14z m835
-654 c945 -136 1741 -587 2324 -1316 535 -668 813 -1525 770 -2372 -7 -138
-45 -506 -64 -615 l-6 -33 213 0 c427 0 703 -45 991 -161 1051 -421 1609
-1563 1301 -2664 -100 -355 -287 -669 -563 -946 -346 -346 -750 -549 -1241
-626 -110 -17 -361 -18 -5360 -18 -4995 0 -5250 1 -5360 18 -722 113 -1322
495 -1713 1092 -469 717 -526 1638 -148 2410 125 255 255 439 455 643 246 252
543 448 875 577 52 20 177 60 279 88 l185 52 -6 195 c-9 278 10 431 79 640
157 471 533 847 1004 1004 467 155 975 92 1377 -170 129 -83 166 -116 404
-352 119 -118 219 -210 222 -206 3 5 55 144 117 309 115 309 214 529 315 701
495 844 1283 1437 2220 1673 134 33 302 64 445 80 52 6 109 13 125 15 79 11
656 -3 760 -18z"/>
<path d="M5940 8944 c-234 -50 -436 -254 -485 -489 -87 -414 240 -795 661
-772 160 9 298 71 414 187 117 117 177 251 187 415 24 421 -362 749 -777 659z"/>
<path d="M9780 8944 c-234 -50 -436 -254 -485 -489 -87 -414 240 -795 661
-772 160 9 298 71 414 187 117 117 177 251 187 415 24 421 -362 749 -777 659z"/>
<path d="M7760 6714 c-321 -28 -526 -62 -765 -124 -555 -145 -1080 -403 -1570
-770 -258 -194 -558 -479 -606 -576 -55 -115 -30 -255 65 -349 69 -69 130 -97
223 -103 67 -4 79 -2 137 27 48 24 82 51 136 111 147 163 451 410 698 567 494
314 990 493 1562 565 138 17 582 17 720 0 479 -60 890 -191 1310 -417 343
-185 652 -416 922 -688 146 -147 192 -172 303 -165 91 6 153 35 221 103 95 94
120 234 65 349 -48 97 -347 382 -606 576 -653 490 -1378 788 -2130 875 -132
15 -584 28 -685 19z"/>
</g>
</svg>
